<svg viewBox="4 94.5 195 64" xmlns="http://www.w3.org/2000/svg" style="max-height: 500px" width="195" height="64">

  <path fill="#96151D" d="m166.8 98c-7.36 0-17.07 1.58-19.87 6.61-2.09 3.87-1.44 7.31-0.03 9.31 0.9 0.83 1.88 0 0.98-2.61s-0.95-5.89 2.77-7.89c3.73-2 10.2-2.36 14.55-2.36 9.71 0 28.23 5.38 29.01 15.85 0.77 9.77-11.12 14.05-21.51 13.5-1.64-0.15-2.37 0.12-2.15 2.58 0.5 5.63 7.38 17.72 13.56 17.72 2.1 0 1.9-0.6 1.9-0.6 0.63-0.32 0.1-1.95-0.91-1.28-0.78 0.53-1.26 0.58-2.67-0.21-4.79-2.71-8.2-11.5-8.42-13.31 10.19-1.4 22.93-7.4 22.93-17.41 0-10.84-14.04-19.9-30.14-19.9z"/>
  <path fill="#96151D" d="m179.1 111.6c-6.35 9.52-18.73 25.64-18.73 31.76 0 0.72 0.4 1.29 1.28 1.29s1.27-0.67 1.27-1.76c0.73-6.23 12.85-22.29 17.4-29.68 0.95-1.61 1.3-1.93 0.62-2.45-0.73-0.63-1.21-0.21-1.84 0.84z"/>
  <path fill="#2B2A29" d="m5.74 126c0-5.81 2.05-7.9 7.77-7.9h11.46c5.12 0 7.74 1.71 7.74 5.97v0.68h-2.68c0-3.63-1.61-4.2-6.37-4.2h-9.57c-2.96 0-5.08 0.92-5.08 5.02v7c0 4.1 2.12 5.02 5.08 5.02h10.74c3.76 0 5.09-1.24 5.09-4.48v-1.55h-11.74v-2.45h14.58v3.68c0 5.7-1.9 7.24-7.85 7.24h-11.4c-5.72 0-7.77-2.09-7.77-7.9v-6.13z"/>
  <path fill="#2B2A29" d="m36.99 123.9h2.78v15.85h-2.78v-15.85zm0-5.71h2.78v3.07h-2.78v-3.07z"/>
  <path fill="#2B2A29" d="m60.44 130.4c0-3.65-2.01-4.36-5-4.36h-4.27c-2.99 0-5 0.71-5 4.36v2.97c0 3.65 2.01 4.36 5 4.36h4.27c2.99 0 5-0.71 5-4.36v-2.97zm-16.83-0.16c0-4.95 3.27-6.49 8.31-6.49h2.77c5.05 0 8.31 1.54 8.31 6.49v3.29c0 4.95-3.26 6.49-8.31 6.49h-2.77c-5.04 0-8.31-1.54-8.31-6.49v-3.29z"/>
  <path fill="#2B2A29" d="m64.91 123.9h2.88l7.12 13.46 7.12-13.46h2.88l-8.36 15.85h-3.28l-8.36-15.85z"/>
  <path fill="#2B2A29" d="m103 134.9c0-2.26-1.66-2.61-5.5-2.61h-3.82c-3.18 0-4.11 0.51-4.11 2.46v0.52c0 1.74 0.62 2.45 3.99 2.45h3.3c4.03 0 6.14-0.39 6.14-2.51v-0.31zm0 3.18h-0.06c-0.67 1.35-1.49 1.77-5.33 1.77h-5.21c-3.89 0-5.03-1.9-5.03-4.84v-1.08c0-3.49 2.5-4.06 6.83-4.06h3.41c3.22 0 4.44 0.39 5.33 1.81h0.06v-2.84c0-2.71-1.63-3.07-5.56-3.07h-3.13c-2.99 0-3.67 0.78-3.67 2.04v0.57h-2.62v-0.78c0-2.66 1.67-3.86 6.24-3.86h3.47c4.76 0 7.88 0.83 7.88 5.19v10.87h-2.61v-1.72z"/>
  <path fill="#2B2A29" d="m108.3 123.9h2.45v2.61h0.06c0.93-2.25 2.83-2.82 6.05-2.82h3.35c4.88 0 6.46 2.56 6.46 5.53v10.53h-2.62v-9.83c0-2.5-0.73-4.04-5.43-4.04h-0.67c-5.55 0-7.03 1.38-7.03 5.26v8.61h-2.62v-15.85z"/>
  <path fill="#2B2A29" d="m129.3 123.9h2.45v2.61h0.06c0.93-2.25 2.83-2.82 6.05-2.82h3.35c4.88 0 6.46 2.56 6.46 5.53v10.53h-2.62v-9.83c0-2.5-0.73-4.04-5.43-4.04h-0.67c-5.55 0-7.03 1.38-7.03 5.26v8.61h-2.62v-15.85z"/>
  <path fill="#2B2A29" d="m150.7 123.9h2.78v15.85h-2.78v-15.85zm0-5.71h2.78v3.07h-2.78v-3.07z"/>
  <path fill="#1B1918" d="m214.4 127.3c0-1.53 0.56-2.22 2.17-2.22h2.43c1.47 0 1.9 0.77 1.9 1.58v0.5h-0.65v-0.26c0-1-0.65-1.06-1.4-1.06h-2.21c-0.79 0-1.45 0.25-1.45 1.4v1.76c0 1.15 0.66 1.4 1.45 1.4h2.23c1.06 0 1.38-0.25 1.38-1.09v-0.34h0.7v0.37c0 1.13-0.4 1.82-2.01 1.82h-2.37c-1.61 0-2.17-0.69-2.17-2.22v-1.64z"/>
  <path fill="#1B1918" d="m225.8 130.3h-0.02c-0.26 0.63-0.8 0.77-1.62 0.77h-0.88c-1.24 0-1.64-0.72-1.64-1.53v-2.64h0.7v2.46c0 0.69 0.2 1.15 1.51 1.15h0.18c1.51 0 1.95-0.37 1.95-1.44v-2.17h0.7v4.1h-0.65v-0.7z"/>
  <path fill="#1B1918" d="m227.5 128.5c0-1.36 0.95-1.63 2.08-1.63h1.05c1.23 0 1.72 0.58 1.72 1.43v0.11h-0.64v-0.09c0-0.73-0.47-0.91-1.14-0.91h-1.09c-0.72 0-1.33 0.14-1.33 1.12v0.91c0 0.87 0.56 1.14 1.43 1.14h1c0.71 0 1.21-0.25 1.21-0.97v-0.13h0.64v0.12c0 1.03-0.51 1.52-1.74 1.52h-1.36c-0.7 0-1.83-0.22-1.83-1.58v-1.04z"/>
  <path fill="#1B1918" d="m233 126.9h0.7v4.1h-0.7v-4.1zm0-1.78h0.7v0.81h-0.7v-0.81z"/>
  <path fill="#1B1918" d="m234.7 126.9h0.65v0.7h0.01c0.27-0.63 0.8-0.77 1.62-0.77h0.89c1.23 0 1.64 0.72 1.64 1.53v2.64h-0.7v-2.46c0-0.69-0.21-1.15-1.52-1.15h-0.17c-1.51 0-1.95 0.37-1.95 1.44v2.17h-0.7v-4.1z"/>
  <path fill="#1B1918" d="m243.6 129.7c0-0.64-0.5-0.74-1.56-0.74h-1.02c-0.85 0-1.1 0.14-1.1 0.7v0.13c0 0.49 0.17 0.71 1.06 0.71h0.89c1.13 0 1.73-0.11 1.73-0.73v-0.07zm0 0.83h-0.02c-0.2 0.39-0.45 0.51-1.51 0.51h-1.38c-1.03 0-1.33-0.54-1.33-1.31v-0.28c0-0.95 0.68-1.1 1.84-1.1h0.97c0.87 0 1.2 0.11 1.41 0.51h0.02v-0.81c0-0.75-0.46-0.85-1.47-0.85h-0.9c-0.76 0-0.95 0.24-0.95 0.59v0.15h-0.65v-0.21c0-0.78 0.49-1.1 1.59-1.1h1c1.17 0 2.08 0.22 2.08 1.45v2.78h-0.7v-0.33z"/>
  <path fill="#1B1918" d="m215.1 142.2h0.72v5.68h-0.72v-5.68z"/>
  <path fill="#1B1918" d="m217 144.7h-0.76v-0.56h0.76v-0.91h0.65v0.91h2.22v0.56h-2.22v1.9c0 0.75 0.25 0.98 0.95 0.98h0.19c0.85 0 0.99-0.18 0.99-1.04v-0.29h0.53v0.44c0 0.79-0.08 1.45-1.47 1.45h-0.32c-1.23 0-1.52-0.68-1.52-1.36v-2.08z"/>
  <path fill="#1B1918" d="m224.2 146.8c0-0.64-0.5-0.74-1.56-0.74h-1.02c-0.85 0-1.1 0.14-1.1 0.7v0.13c0 0.49 0.17 0.71 1.06 0.71h0.89c1.13 0 1.73-0.11 1.73-0.73v-0.07zm0 0.83h-0.02c-0.2 0.39-0.45 0.51-1.51 0.51h-1.38c-1.03 0-1.33-0.54-1.33-1.31v-0.28c0-0.95 0.68-1.1 1.84-1.1h0.97c0.87 0 1.2 0.11 1.41 0.51h0.02v-0.81c0-0.75-0.46-0.85-1.47-0.85h-0.9c-0.76 0-0.95 0.24-0.95 0.59v0.15h-0.65v-0.21c0-0.78 0.49-1.1 1.59-1.1h1c1.17 0 2.08 0.22 2.08 1.45v2.78h-0.7v-0.33z"/>
  <path fill="#1B1918" d="m225.6 142.2h0.7v5.68h-0.7v-5.68z"/>
  <path fill="#1B1918" d="m230.4 146.8c0-0.64-0.5-0.74-1.56-0.74h-1.02c-0.85 0-1.1 0.14-1.1 0.7v0.13c0 0.49 0.17 0.71 1.06 0.71h0.89c1.13 0 1.73-0.11 1.73-0.73v-0.07zm0 0.83h-0.02c-0.2 0.39-0.45 0.51-1.51 0.51h-1.38c-1.03 0-1.33-0.54-1.33-1.31v-0.28c0-0.95 0.68-1.1 1.84-1.1h0.97c0.87 0 1.2 0.11 1.41 0.51h0.02v-0.81c0-0.75-0.46-0.85-1.47-0.85h-0.9c-0.76 0-0.95 0.24-0.95 0.59v0.15h-0.65v-0.21c0-0.78 0.49-1.1 1.59-1.1h1c1.17 0 2.08 0.22 2.08 1.45v2.78h-0.7v-0.33z"/>
  <path fill="#1B1918" d="m231.8 143.8h0.65v0.7h0.01c0.27-0.63 0.8-0.77 1.62-0.77h0.89c1.23 0 1.64 0.72 1.64 1.53v2.64h-0.7v-2.46c0-0.69-0.21-1.15-1.52-1.15h-0.17c-1.51 0-1.95 0.37-1.95 1.44v2.17h-0.7v-4.1z"/>
  <path fill="#1B1918" d="m241.5 146.8c0-0.64-0.5-0.74-1.56-0.74h-1.02c-0.85 0-1.1 0.14-1.1 0.7v0.13c0 0.49 0.17 0.71 1.06 0.71h0.89c1.13 0 1.73-0.11 1.73-0.73v-0.07zm0 0.83h-0.02c-0.2 0.39-0.45 0.51-1.51 0.51h-1.38c-1.03 0-1.33-0.54-1.33-1.31v-0.28c0-0.95 0.68-1.1 1.84-1.1h0.97c0.87 0 1.2 0.11 1.41 0.51h0.02v-0.81c0-0.75-0.46-0.85-1.47-0.85h-0.9c-0.76 0-0.95 0.24-0.95 0.59v0.15h-0.65v-0.21c0-0.78 0.49-1.1 1.59-1.1h1c1.17 0 2.08 0.22 2.08 1.45v2.78h-0.7v-0.33z"/>
  <path fill="#007732" d="m219.3 133.2 1.31 3.3 3.56 0.2-2.79 2.3 0.95 3.44-3.03-2.02-3.03 2.02 0.95-3.44-2.79-2.3 3.56-0.2 1.31-3.3z"/>
  <path fill="#DBDBD9" d="m229.4 133.2 1.31 3.3 3.56 0.2-2.79 2.3 0.95 3.44-3.03-2.02-3.03 2.02 0.95-3.44-2.79-2.3 3.56-0.2 1.31-3.3z"/>
  <path fill="#900" d="m239.9 133.2 1.31 3.3 3.56 0.2-2.79 2.3 0.95 3.44-3.03-2.02-3.03 2.02 0.95-3.44-2.79-2.3 3.56-0.2 1.31-3.3z"/>
</svg>